Coordinates
version=1
nRows=18
nColumns=28
inDegrees=yes

Units are S.I. units (second, meters, Newtons, ...)
Angles are in degrees.

endheader
time	pelvis_tilt	pelvis_list	pelvis_rotation	pelvis_tx	pelvis_ty	pelvis_tz	hip_flexion_r	hip_adduction_r	hip_rotation_r	knee_angle_r	ankle_angle_r	subtalar_angle_r	mtp_angle_r	hip_flexion_l	hip_adduction_l	hip_rotation_l	knee_angle_l	socket_flexion	socket_adduction	socket_rotation	socket_tx	socket_ty	socket_tz	foot_flex	lumbar_extension	lumbar_bending	lumbar_rotation
      0.97916667	     10.46791997	      2.66848624	     -5.92684056	      0.40039608	      1.03340137	      0.27035742	     -3.22864720	      1.82605420	      3.97039438	    -20.73761076	     10.28159787	    -10.34142734	     29.41123981	     -4.50890877	      2.91254446	     -3.03981196	    -54.05359641	      0.00000000	      0.00000000	      0.00000000	      0.00000000	      0.00000000	      0.00000000	      4.32047402	    -19.26207134	     -4.16777344	     10.32720931
      0.98333333	     10.49743752	      2.79909034	     -6.15769769	      0.40506757	      1.03418810	      0.27082335	     -3.67779211	      1.59922199	      4.00210819	    -20.43268687	     10.25349310	    -10.19800962	     29.45618230	     -3.96049510	      2.96065046	     -2.97599548	    -53.82573429	      0.00000000	      0.00000000	      0.00000000	      0.00000000	      0.00000000	      0.00000000	      4.34049396	    -19.27602936	     -4.42127033	     10.44619752
      0.98750000	     10.51613938	      2.94579479	     -6.39877823	      0.40980004	      1.03496011	      0.27128214	     -4.13895970	      1.36070119	      4.08000537	    -20.08469365	     10.20004972	     -9.99629031	     29.51453240	     -3.43463282	      3.05476876	     -2.85169480	    -53.50153747	      0.00000000	      0.00000000	      0.00000000	      0.00000000	      0.00000000	      0.00000000	      4.32177378	    -19.25331413	     -4.69006529	     10.62692491
      0.99166667	     10.53901185	      3.05793785	     -6.63494762	      0.41439315	      1.03566265	      0.27166960	     -4.56711653	      1.14125981	      4.10907521	    -19.78387908	     10.16191357	     -9.82767830	     29.56338018	     -2.89221950	      3.10605648	     -2.76160521	    -53.20240040	      0.00000000	      0.00000000	      0.00000000	      0.00000000	      0.00000000	      0.00000000	      4.32527079	    -19.26457833	     -4.90460349	     10.78731847
      0.99583333	     10.54527513	      3.17165668	     -6.85951575	      0.41901239	      1.03635975	      0.27204905	     -4.99319597	      0.93124204	      4.17573411	    -19.46148869	     10.10297632	     -9.61118039	     29.62561880	     -2.37013725	      3.17422962	     -2.60044440	    -52.79756883	      0.00000000	      0.00000000	      0.00000000	      0.00000000	      0.00000000	      0.00000000	      4.30340222	    -19.24473028	     -5.13086635	     10.99148215
      1.00000000	     10.54851247	      3.26373840	     -7.07381459	      0.42352375	      1.03699441	      0.27242092	     -5.39317719	      0.74383812	      4.20732003	    -19.17485160	     10.04972000	     -9.40900439	     29.68763448	     -1.83415793	      3.21084657	     -2.45523656	    -52.39208906	      0.00000000	      0.00000000	      0.00000000	      0.00000000	      0.00000000	      0.00000000	      4.29043557	    -19.24736070	     -5.32376029	     11.18392369
      1.00416667	     10.54299432	      3.33519242	     -7.28787823	      0.42801142	      1.03757570	      0.27276233	     -5.77682031	      0.57231898	      4.23596731	    -18.89719168	      9.99140032	     -9.19365187	     29.75756875	     -1.30170737	      3.23734696	     -2.27073648	    -51.95008492	      0.00000000	      0.00000000	      0.00000000	      0.00000000	      0.00000000	      0.00000000	      4.26913107	    -19.23274307	     -5.50120548	     11.38459745
      1.00833333	     10.52321586	      3.39712947	     -7.55426722	      0.43243636	      1.03806702	      0.27308094	     -6.07259397	      0.37258867	      4.14101062	    -18.72468397	      9.89419032	     -8.61188883	     30.16129197	     -0.76309238	      3.25691861	     -2.14717035	    -51.47478014	      0.00000000	      0.00000000	      0.00000000	      0.00000000	      0.00000000	      0.00000000	      4.27021229	    -19.20099496	     -5.67677347	     11.93440920
      1.01250000	     10.49909815	      3.43708066	     -7.72443389	      0.43674566	      1.03854755	      0.27339407	     -6.40517867	      0.25716212	      4.18203766	    -18.51368307	      9.90959495	     -8.51502743	     30.20884519	     -0.21731874	      3.24632783	     -1.89641967	    -50.97013711	      0.00000000	      0.00000000	      0.00000000	      0.00000000	      0.00000000	      0.00000000	      4.24182253	    -19.20232469	     -5.80959463	     11.95832877
      1.01666667	     10.44219010	      3.48385009	     -7.86372787	      0.44109707	      1.03894971	      0.27366028	     -6.74553387	      0.13205130	      4.18360839	    -18.20206342	      9.85577246	     -8.35479138	     30.26767947	      0.36284542	      3.23293907	     -1.65287861	    -50.45458993	      0.00000000	      0.00000000	      0.00000000	      0.00000000	      0.00000000	      0.00000000	      4.20631766	    -19.16626057	     -5.92715045	     12.04392795
      1.02083333	     10.45441301	      3.44955252	     -8.06162338	      0.44492428	      1.03930550	      0.27399323	     -6.99172752	      0.08304495	      4.13870095	    -18.18616153	      9.84949771	     -8.32708678	     30.27765168	      0.92017968	      3.12277319	     -1.50999659	    -50.00380664	      0.00000000	      0.00000000	      0.00000000	      0.00000000	      0.00000000	      0.00000000	      4.23336286	    -19.30564917	     -5.96726005	     12.06290154
      1.02500000	     10.23897569	      3.48741335	     -8.07751453	      0.44960524	      1.03954502	      0.27407707	     -7.28672000	     -0.00665651	      4.11399683	    -17.67178694	      9.60809202	     -7.93894016	     30.43436142	      1.60220471	      3.11021236	     -1.05649982	    -49.35243379	      0.00000000	      0.00000000	      0.00000000	      0.00000000	      0.00000000	      0.00000000	      4.15914763	    -19.02532458	     -6.05662966	     12.33338929
      1.02916667	     10.12976497	      3.48222697	     -8.20166395	      0.45379727	      1.03976120	      0.27423203	     -7.52200421	     -0.07067541	      4.10511939	    -17.45669144	      9.59469684	     -7.79063604	     30.54045834	      2.20350295	      3.05464516	     -0.75306279	    -48.72786337	      0.00000000	      0.00000000	      0.00000000	      0.00000000	      0.00000000	      0.00000000	      4.11812325	    -18.95816980	     -6.08442552	     12.41816398
      1.03333333	     10.12427564	      3.42867488	     -8.37743591	      0.45748448	      1.03996165	      0.27456212	     -7.73383855	     -0.09298289	      4.06476647	    -17.46099847	      9.59447513	     -7.76832515	     30.55236174	      2.75126831	      2.91903620	     -0.58855463	    -48.18209427	      0.00000000	      0.00000000	      0.00000000	      0.00000000	      0.00000000	      0.00000000	      4.14328198	    -19.10865069	     -6.11273345	     12.43261070
      1.03750000	      9.93803468	      3.39241533	     -8.40510282	      0.46197703	      1.04012514	      0.27458478	     -8.00999742	     -0.09832642	      4.09881524	    -17.05925578	      9.52717940	     -7.56426823	     30.61642242	      3.34678681	      2.84308639	     -0.12317720	    -47.40059097	      0.00000000	      0.00000000	      0.00000000	      0.00000000	      0.00000000	      0.00000000	      4.02199918	    -18.88986588	     -6.07896511	     12.56968279
      1.04166667	      9.64164128	      3.31016787	     -8.37966069	      0.46609587	      1.03999181	      0.27458788	     -8.07023255	     -0.02441079	      4.00518980	    -16.81319045	      9.32531594	     -7.35886089	     30.75682469	      4.15420393	      2.67106451	      0.31033904	    -46.77220538	      0.00000000	      0.00000000	      0.00000000	      0.00000000	      0.00000000	      0.00000000	      4.01867284	    -18.64388101	     -5.99783959	     12.69413904
      1.04583333	      9.56496393	      3.30206053	     -8.37888278	      0.46888371	      1.04038071	      0.27593711	     -8.18399211	      0.08784150	      4.06117520	    -16.80172961	      9.31868173	     -7.37866579	     30.76460878	      4.73402553	      2.46085049	      0.51834804	    -45.96398929	      0.00000000	      0.00000000	      0.00000000	      0.00000000	      0.00000000	      0.00000000	      3.88147037	    -18.79183983	     -6.19428982	     12.66687308
      1.05000000	      9.27671047	      3.24148622	     -8.45362024	      0.47342299	      1.04022358	      0.27601760	     -8.35163488	      0.12512597	      4.21107838	    -16.40008135	      9.18617993	     -7.44376862	     30.76995614	      5.44612990	      2.33678498	      0.91980666	    -45.20143153	      0.00000000	      0.00000000	      0.00000000	      0.00000000	      0.00000000	      0.00000000	      3.76252403	    -18.48661427	     -6.12045453	     12.73917233
